<?xml version="1.0" encoding="utf-8"?>
<!-- Generator: Adobe Illustrator 16.0.0, SVG Export Plug-In . SVG Version: 6.00 Build 0)  -->
<!DOCTYPE svg PUBLIC "-//W3C//DTD SVG 1.1//EN" "http://www.w3.org/Graphics/SVG/1.1/DTD/svg11.dtd">
<svg version="1.1" id="Capa_1" xmlns="http://www.w3.org/2000/svg" xmlns:xlink="http://www.w3.org/1999/xlink" x="0px" y="0px"
	 width="941.533px" height="164.051px" viewBox="0 0 941.533 164.051" enable-background="new 0 0 941.533 164.051"
	 xml:space="preserve">
<g>
	<g>
		<path fill="#FF7C7C" d="M367.358,7.375c-9.834-9.834-25.722-9.834-35.43,0c-9.835,9.834-9.835,25.595,0,35.429l17.651,17.779
			l17.65-17.653C377.066,33.096,377.066,17.209,367.358,7.375z"/>
		<path fill="#FFFFFF" d="M349.581,42.551c-9.583,0-17.4-7.817-17.4-17.398c0-9.583,7.817-17.399,17.4-17.399
			c9.581,0,17.397,7.817,17.397,17.399S359.162,42.551,349.581,42.551z"/>
		<path fill="#435B6C" d="M357.776,16.578c-1.515-1.26-3.783-1.891-7.062-1.891h-7.438v20.929h4.665v-5.799h2.899
			c3.151,0,5.422-0.63,6.936-1.765c1.514-1.261,2.27-3.152,2.27-5.673C360.046,19.731,359.289,17.84,357.776,16.578z
			 M354.372,24.774c-0.505,0.631-1.641,0.882-3.152,0.882h-3.15v-7.06h2.646c1.513,0,2.647,0.252,3.403,0.757
			c0.758,0.504,1.135,1.386,1.135,2.521C355.254,23.261,354.877,24.143,354.372,24.774z"/>
	</g>
	<g>
		<path fill="none" stroke="#FF7C7C" stroke-miterlimit="10" d="M450.241,137.514h-5.859c-1.447-7.317-4.025-17.325-8.12-22.629
			C417.116,90.057,393.077,76.73,362.86,76.73c-19.58,0-32.331,1.913-38.973,5.85c-0.896,0.532-3.54,2.098-10.679,16.455
			c-10.423,0.164-37.992,2.057-51.212,16.956c-6.635,7.476-9.273,15.513-10.291,21.519h-2.765c-2.443,0-4.42,1.979-4.42,4.422
			c0,2.438,1.977,4.422,4.419,4.422h2.209c0.019,0.238,0.036,0.421,0.042,0.477c0.232,2.241,2.134,3.95,4.389,3.95h5.565
			c3.418,7.797,11.194,13.271,20.243,13.271s16.824-5.474,20.252-13.271h84.352c3.413,7.798,11.192,13.271,20.242,13.271
			c9.051,0,16.829-5.474,20.242-13.271h14.906c0.032,0,0.06,0,0.084,0c2.442,0,4.426-1.98,4.426-4.423h4.349
			c2.437,0,4.412-1.983,4.412-4.423C454.653,139.489,452.678,137.514,450.241,137.514z M281.388,155.206
			c-7.313,0-13.267-5.947-13.267-13.271c0-7.32,5.948-13.273,13.267-13.273c7.321,0,13.28,5.953,13.28,13.273
			C294.67,149.258,288.711,155.206,281.388,155.206z M359.804,103.756c0,1.225-0.983,2.213-2.213,2.213h-34.354
			c-0.759,0-1.462-0.396-1.868-1.041c-0.412-0.647-0.449-1.457-0.112-2.139c1.62-3.334,4.559-9.109,5.963-10.311
			c4.68-2.975,14.062-4.385,28.121-4.385c0.767,0,1.53,0.01,2.308,0.022c1.193,0.028,2.151,1.015,2.151,2.214L359.804,103.756
			L359.804,103.756z M364.237,103.756V90.958c0-0.631,0.275-1.232,0.742-1.652c0.472-0.422,1.098-0.631,1.728-0.547
			c15.569,1.83,27.542,6.98,32.048,13.775c0.453,0.682,0.485,1.551,0.104,2.27c-0.379,0.719-1.136,1.166-1.952,1.166h-30.464
			C365.23,105.969,364.237,104.981,364.237,103.756z M406.236,155.206c-7.313,0-13.271-5.947-13.271-13.271
			c0-7.32,5.953-13.273,13.271-13.273c7.316,0,13.271,5.953,13.271,13.273C419.507,149.258,413.549,155.206,406.236,155.206z"/>
		<path fill="#FFB47D" d="M3.448,127.317v19.494h144.827L200,122.672l-2.324-9.295c-0.681-2.72-2.938-4.758-5.715-5.154
			l-19.547-2.791l-18.326-15.709c-3.75-3.215-8.525-4.98-13.465-4.98H94.137c-5.034,0-9.814,2.199-13.09,6.021l-15.529,18.117
			c-29.399,0-50.35,5.114-56.844,9.114C5.427,119.995,3.45,123.504,3.448,127.317z"/>
		<path fill="#FF9164" d="M3.448,129.569v20.689h131.033L200,139.913v-20.689c0-1.902-1.544-3.447-3.448-3.447H62.069
			c-48.275,0-58.619,6.896-58.619,13.793H3.448z"/>
		<path fill="#FF7D5A" d="M0.002,146.811c0,1.902,1.541,3.447,3.447,3.447h162.068c0.253,0,0.501-0.026,0.747-0.082l31.034-6.896
			c1.858-0.412,3.03-2.254,2.62-4.113c-0.414-1.861-2.273-3.021-4.115-2.617l-30.664,6.813H3.45
			C1.543,143.362,0,144.906,0.002,146.811z"/>
		<circle fill="#EDEDEE" cx="34.486" cy="143.361" r="17.241"/>
		<path fill="#504B5A" d="M13.793,143.362c0-11.408,9.281-20.689,20.688-20.689c11.41,0,20.689,9.281,20.689,20.689
			c0,11.409-9.279,20.689-20.689,20.689C23.075,164.051,13.793,154.771,13.793,143.362z M20.689,143.362
			c0,7.607,6.188,13.793,13.794,13.793c7.606,0,13.793-6.186,13.793-13.793c0-7.605-6.187-13.793-13.793-13.793
			C26.876,129.569,20.689,135.754,20.689,143.362z"/>
		<circle fill="#DCDBDE" cx="34.485" cy="143.362" r="6.896"/>
		<circle fill="#EDEDEE" cx="165.517" cy="143.361" r="17.241"/>
		<path fill="#504B5A" d="M144.827,143.362c0-11.408,9.279-20.689,20.688-20.689c11.408,0,20.689,9.281,20.689,20.689
			c0,11.409-9.281,20.689-20.689,20.689C154.108,164.051,144.827,154.771,144.827,143.362z M151.723,143.362
			c0,7.607,6.187,13.793,13.793,13.793s13.793-6.186,13.793-13.793c0-7.605-6.187-13.793-13.793-13.793
			C157.909,129.569,151.723,135.754,151.723,143.362z"/>
		<circle fill="#DCDBDE" cx="165.518" cy="143.362" r="6.896"/>
		<g>
			<path fill="#FF7D5A" d="M58.621,133.018L58.621,133.018c0-1.904,1.543-3.448,3.447-3.448h72.412c1.904,0,3.448,1.544,3.448,3.448
				l0,0c0,1.902-1.544,3.447-3.448,3.447H62.068C60.164,136.465,58.621,134.922,58.621,133.018z"/>
			<path fill="#FF7D5A" d="M0,133.018L0,133.018c0-1.904,1.545-3.448,3.449-3.448h3.446c1.904,0,3.449,1.544,3.449,3.448l0,0
				c0,1.902-1.545,3.447-3.449,3.447H3.449C1.545,136.465,0,134.922,0,133.018z"/>
		</g>
		<path fill="#FF9164" d="M156.229,108.129c-2.998,0.5-6.031,0.75-9.07,0.75H65.517l15.529-18.117
			c3.275-3.82,8.057-6.021,13.09-6.021h46.485c4.938,0,9.715,1.767,13.465,4.979l18.326,15.709L156.229,108.129z"/>
		<path fill="#625D6B" d="M85.116,106.051c-0.937,1.123-0.138,2.828,1.323,2.828h60.409c2.693,0,4.877-2.185,4.877-4.877l0,0
			c0-1.293-0.515-2.533-1.43-3.447l-10.344-10.346c-1.293-1.293-3.047-2.02-4.877-2.02h-31.846c-2.047,0-3.987,0.908-5.298,2.48
			L85.116,106.051z"/>
		<polygon fill="#504B5A" points="124.137,88.191 131.034,88.191 137.93,108.879 127.586,108.879 		"/>
		<path fill="#EDEDEE" d="M3.603,126.12h6.742c1.904,0,3.447-1.544,3.447-3.447c0-1.904-1.543-3.447-3.447-3.447H7.151
			C5.151,121.012,3.903,123.439,3.603,126.12z"/>
		<path fill="#625D6B" d="M65.517,108.879h7.113c2.047,0,3.988-0.908,5.299-2.48l12.817-15.381c0.936-1.123,0.138-2.827-1.325-2.827
			h-5.627c-0.998,0.748-1.922,1.608-2.748,2.571L65.517,108.879z"/>
		<path fill="#FF6464" d="M196.551,115.777h-3.448c-1.903,0-3.447,1.544-3.447,3.448s1.544,3.447,3.447,3.447h6.896v-3.447
			C199.999,117.321,198.456,115.776,196.551,115.777z"/>
		<g>
			<path fill="#008DB3" d="M745.3,123.03c0.02,0.48,0.061,0.961,0.117,1.445l1.35,11.857l0.117-0.015h18.529
				c0.346-0.813,0.748-1.604,1.188-2.375c4.146-7.188,11.865-11.653,20.156-11.653c8.303,0,16.037,4.475,20.182,11.68
				c0.439,0.762,0.83,1.545,1.172,2.35h70.568c0.346-0.813,0.748-1.605,1.189-2.375c4.146-7.188,11.865-11.652,20.156-11.652
				c8.289,0,16.014,4.465,20.164,11.652c0.441,0.77,0.84,1.563,1.189,2.375l16.621,3.887v-29.373c0-4.691-3.125-8.814-7.645-10.087
				c-4.18-1.181-7.904-3.409-10.869-6.396c-2.963-2.981-5.176-6.717-6.324-10.908l-0.412-1.493
				c-3.635-13.211-15.65-22.362-29.352-22.362h-52.576c-7.941,0-15.32,4.123-19.482,10.891l-16.283,26.464l-30.521,3.488
				c-8.051,0.922-14.564,6.127-17.529,13.08C745.759,116.436,745.138,119.672,745.3,123.03z"/>
			<path fill="#CCCCCC" d="M746.745,136.329l18.668-0.011c-1.262,2.896-1.912,6.045-1.912,9.233c0,0.402,0.012,0.806,0.033,1.203
				h-16.787c-2.879,0-5.213-2.334-5.213-5.213l0,0C741.534,138.664,743.865,136.33,746.745,136.329z"/>
			<path fill="#666666" d="M770.724,136.319c3.195-5.539,9.18-9.27,16.033-9.27c6.867,0,12.859,3.739,16.053,9.291
				c1.561,2.713,2.449,5.858,2.449,9.213c0,0.401-0.012,0.805-0.039,1.203c-0.617,9.652-8.643,17.295-18.461,17.295
				c-9.814,0-17.842-7.643-18.459-17.295c-0.027-0.398-0.039-0.802-0.039-1.203C768.261,142.191,769.154,139.036,770.724,136.319z
				 M786.759,153.143c4.188,0,7.59-3.406,7.59-7.59c0-4.186-3.402-7.59-7.59-7.59c-4.186,0-7.586,3.404-7.586,7.59
				C779.173,149.737,782.575,153.143,786.759,153.143z"/>
			<path fill="#E6E6E6" d="M794.347,145.553c0,4.184-3.402,7.59-7.59,7.59c-4.184,0-7.586-3.406-7.586-7.59
				c0-4.186,3.402-7.59,7.586-7.59C790.945,137.963,794.347,141.368,794.347,145.553z"/>
			<path fill="#CCCCCC" d="M808.111,136.319h70.568c-1.26,2.895-1.912,6.045-1.912,9.234c0,0.397,0.012,0.801,0.033,1.203h-66.814
				c0.021-0.396,0.033-0.802,0.033-1.203C810.019,142.368,809.368,139.223,808.111,136.319z"/>
			<path fill="#76CDCE" d="M901.882,82.421c0.307,0.743,0.57,1.509,0.787,2.3l0.412,1.494c1.066,3.877,2.756,10.727,2.756,10.727
				h-14.484v-25.24C896.056,73.748,899.882,77.565,901.882,82.421z"/>
			<path fill="#76CDCE" d="M854.98,70.04h28.42c0.488,0,0.979,0.018,1.463,0.057v26.845H854.98V70.04L854.98,70.04z"/>
			<path fill="#76CDCE" d="M820.247,75.955c2.238-3.647,6.299-5.915,10.578-5.915h17.662v26.901h-41.152L820.247,75.955z"/>
			<path fill="#666666" d="M881.527,145.553c0-3.362,0.896-6.518,2.467-9.234c3.191-5.539,9.178-9.27,16.031-9.27
				c6.857,0,12.844,3.729,16.041,9.27c1.566,2.718,2.461,5.872,2.461,9.234c0,0.401-0.012,0.805-0.039,1.203
				c-0.617,9.652-8.645,17.295-18.463,17.295c-9.813,0-17.842-7.643-18.459-17.295C881.54,146.358,881.527,145.955,881.527,145.553z
				 M900.025,153.143c4.189,0,7.592-3.406,7.592-7.59c0-4.186-3.402-7.59-7.592-7.59c-4.186,0-7.59,3.404-7.59,7.59
				C892.435,149.737,895.841,153.143,900.025,153.143z"/>
			<path fill="#E6E6E6" d="M907.615,145.553c0,4.184-3.4,7.59-7.59,7.59c-4.186,0-7.59-3.406-7.59-7.59
				c0-4.186,3.404-7.59,7.59-7.59C904.214,137.963,907.615,141.368,907.615,145.553z"/>
			<path fill="#CCCCCC" d="M921.38,136.319h14.936c2.883,0,5.219,2.336,5.219,5.219l0,0c0,2.883-2.336,5.219-5.219,5.219h-13.063
				c0.021-0.397,0.035-0.801,0.035-1.203C923.288,142.364,922.636,139.217,921.38,136.319z"/>
			<path fill="#CCCCCC" d="M828.06,108.586c0-1.435,1.162-2.597,2.596-2.597h6.82c1.436,0,2.596,1.162,2.596,2.597
				s-1.16,2.596-2.596,2.596h-6.82C829.222,111.182,828.06,110.021,828.06,108.586z"/>
			<path fill="#CCCCCC" d="M874.888,108.586c0-1.435,1.162-2.597,2.596-2.597h6.82c1.434,0,2.596,1.162,2.596,2.597
				s-1.162,2.596-2.596,2.596h-6.82C876.052,111.182,874.888,110.021,874.888,108.586z"/>
			<path fill="#FFFFFF" d="M747.005,113.51h13.029l0,0c0,5.258-4.264,9.52-9.521,9.52h-5.215
				C744.925,119.725,745.572,116.641,747.005,113.51z"/>
			<polygon fill="#96E0DE" points="884.863,70.097 858.021,96.942 854.98,96.942 854.98,70.097 			"/>
			<path fill="#96E0DE" d="M820.247,75.955c2.238-3.647,6.299-5.915,10.578-5.915h17.662l-26.9,26.901h-14.252L820.247,75.955z"/>
			<path fill="#96E0DE" d="M901.882,82.421l-10.527,10.526V71.701C896.056,73.748,899.882,77.565,901.882,82.421z"/>
		</g>
	</g>
	<g>
		<path fill="#FF9164" d="M557.722,105.43l19.08-23.725c1.965-2.44,4.928-3.86,8.063-3.86h77.859c4.188,0,8.146,1.899,10.764,5.167
			l15.803,19.717c1.768,1.768,3.02,3.982,3.627,6.406l2.52,10.088L557.722,105.43z"/>
		<path fill="#AFF078" d="M576.802,81.706l-19.08,23.724c0,0-32.721,1.875-50.18,4.689c-5.002,0.807-8.656,5.141-8.656,10.207v26.48
			h144.826l51.725-27.586l-2.521-10.088c-0.605-2.424-1.859-4.639-3.627-6.404L673.49,83.01c-2.617-3.266-6.576-5.167-10.764-5.167
			h-77.863C581.73,77.845,578.765,79.265,576.802,81.706z"/>
		<g>
			<path fill="#96E178" d="M576.804,81.705l-19.08,23.725h20.689l110.127-3.447l-15.053-18.93c-2.615-3.291-6.59-5.208-10.795-5.208
				h-77.83C581.73,77.845,578.765,79.265,576.804,81.705z"/>
			<path fill="#96E178" d="M498.888,143.362h131.033l65.518-6.896l-0.002-20.69c0-1.904-1.543-3.447-3.447-3.447H557.507
				c-31.449,0-46.801,2.927-53.684,4.968c-2.938,0.871-4.938,3.553-4.938,6.616v19.45H498.888z"/>
		</g>
		<path fill="#8CCD73" d="M495.439,143.362c0,1.902,1.541,3.447,3.447,3.447h162.068c0.252,0,0.502-0.027,0.748-0.082l31.033-6.896
			c1.859-0.412,3.031-2.254,2.619-4.113c-0.414-1.862-2.271-3.022-4.113-2.619l-30.664,6.814H498.886
			C496.98,139.912,495.437,141.458,495.439,143.362z"/>
		<circle fill="#EDEDEE" cx="662.679" cy="145.084" r="15.805"/>
		<path fill="#504B5A" d="M643.714,145.084c0-10.457,8.506-18.966,18.965-18.966c10.457,0,18.965,8.509,18.965,18.966
			c0,10.459-8.508,18.967-18.965,18.967C652.22,164.051,643.714,155.543,643.714,145.084z M650.609,145.084
			c0,6.655,5.412,12.067,12.068,12.067s12.068-5.412,12.068-12.067c0-6.656-5.412-12.068-12.068-12.068
			S650.609,138.428,650.609,145.084z"/>
		<circle fill="#DCDBDE" cx="662.679" cy="145.084" r="6.896"/>
		<g>
			<path fill="#8CCD73" d="M557.507,129.569L557.507,129.569c0-1.904,1.545-3.449,3.449-3.449h75.859
				c1.904,0,3.447,1.545,3.447,3.449l0,0c0,1.902-1.543,3.447-3.447,3.447h-75.859C559.052,133.016,557.507,131.473,557.507,129.569
				z"/>
			<path fill="#8CCD73" d="M495.437,129.569L495.437,129.569c0-1.904,1.545-3.449,3.449-3.449h6.896
				c1.902,0,3.447,1.545,3.447,3.449l0,0c0,1.902-1.543,3.447-3.447,3.447h-6.896C496.982,133.016,495.437,131.473,495.437,129.569z
				"/>
		</g>
		<path fill="#FF6464" d="M691.368,105.43h-6.273c-1.904,0-3.449,1.545-3.449,3.449c0,1.903,1.545,3.446,3.449,3.446h8.619
			l-0.799-3.19C692.587,107.823,692.054,106.583,691.368,105.43z"/>
		<circle fill="#EDEDEE" cx="535.095" cy="145.084" r="15.805"/>
		<path fill="#504B5A" d="M516.128,145.084c0-10.457,8.508-18.966,18.965-18.966c10.459,0,18.967,8.509,18.967,18.966
			c0,10.459-8.508,18.967-18.967,18.967C524.636,164.051,516.128,155.543,516.128,145.084z M523.023,145.084
			c0,6.655,5.414,12.067,12.068,12.067c6.656,0,12.07-5.412,12.07-12.067c0-6.656-5.414-12.068-12.07-12.068
			C528.437,133.016,523.023,138.428,523.023,145.084z"/>
		<circle fill="#DCDBDE" cx="535.095" cy="145.084" r="6.896"/>
		<path fill="#625D6B" d="M578.409,105.43h0.004l75.9-2.346c2.514-0.08,4.098-2.738,2.975-4.988l-3.686-11.939
			c-0.891-2.893-3.563-4.863-6.59-4.863h-49.916c-2.141,0-4.16,0.994-5.467,2.69l-14.461,18.8
			C576.294,103.834,577.042,105.43,578.409,105.43z"/>
		<path fill="#EDEDEE" d="M498.888,120.326v2.345h6.896c1.902,0,3.445-1.543,3.445-3.447s-1.543-3.448-3.445-3.448h-5.799
			C499.304,117.157,498.888,118.693,498.888,120.326L498.888,120.326z"/>
		<polygon fill="#504B5A" points="624.517,81.292 617.622,81.292 616.128,104.266 623.023,104.053 		"/>
		<g>
			<path fill="#625D6B" d="M557.722,105.43h8.203c1.352,0,2.625-0.625,3.455-1.691l14.934-19.24
				c1.016-1.306,0.084-3.205-1.568-3.205h-5.525c-0.049,0.022-0.088,0.041-0.137,0.064L557.722,105.43z"/>
			<path fill="#625D6B" d="M667.445,98.576c1.191,2.438,3.701,3.949,6.412,3.865l14.684-0.46l-15.053-18.93
				c-0.521-0.658-1.135-1.216-1.758-1.759h-9.01c-1.717,0-2.842,1.798-2.088,3.341L667.445,98.576z"/>
		</g>
	</g>
</g>
</svg>
