<?xml version="1.0" encoding="utf-8"?>
<!-- Generator: Adobe Illustrator 16.0.0, SVG Export Plug-In . SVG Version: 6.00 Build 0)  -->
<!DOCTYPE svg PUBLIC "-//W3C//DTD SVG 1.1//EN" "http://www.w3.org/Graphics/SVG/1.1/DTD/svg11.dtd">
<svg version="1.1" id="Layer_1" xmlns="http://www.w3.org/2000/svg" xmlns:xlink="http://www.w3.org/1999/xlink" x="0px" y="0px"
	 width="16px" height="16px" viewBox="0 0 16 16" enable-background="new 0 0 16 16" xml:space="preserve">
<rect fill="#FF5555" width="16" height="16"/>
<path fill="#FFFFFF" d="M9.006,7.719c-0.327,0-0.667-0.076-1.046-0.116l0.742-3.469c0.675,0.304,1.403,0.662,1.933,0.662
	c0.952,0,1.586-0.807,1.295-1.998c-0.566,0.251-1.098,0.33-1.619,0.33c-0.876,0-1.72-0.225-2.642-0.225C6.41,2.903,4,3.367,4,5.538
	c0,0.636,0.397,1.23,1.085,1.23c0.171,0,0.357-0.04,0.556-0.133C5.458,6.425,5.379,6.095,5.379,5.869
	c0-1.39,0.954-2.065,1.838-2.158l-2.104,9.318c0.145,0.105,0.397,0.173,0.701,0.173c0.492,0,1.007-0.226,1.139-0.847l0.834-3.918
	C8.172,8.517,8.542,8.661,8.94,8.661c0.689,0,1.046-0.674,0.728-1.085C9.447,7.684,9.23,7.719,9.006,7.719z"/>
</svg>
