<?xml version="1.0" encoding="utf-8"?>
<!-- Generator: Adobe Illustrator 16.0.0, SVG Export Plug-In . SVG Version: 6.00 Build 0)  -->
<!DOCTYPE svg PUBLIC "-//W3C//DTD SVG 1.1//EN" "http://www.w3.org/Graphics/SVG/1.1/DTD/svg11.dtd">
<svg version="1.1" id="Capa_1" xmlns="http://www.w3.org/2000/svg" xmlns:xlink="http://www.w3.org/1999/xlink" x="0px" y="0px"
	 width="941.533px" height="164.051px" viewBox="0 0 941.533 164.051" enable-background="new 0 0 941.533 164.051"
	 xml:space="preserve">
<g>
	<g>
		<path fill="#B85133" d="M375.771,123.89h-137.7c-3.155,0-5.737-2.583-5.737-5.738l0,0c0-3.156,2.582-5.736,5.737-5.736h137.7
			c3.156,0,5.736,2.58,5.736,5.736l0,0C381.508,121.307,378.927,123.89,375.771,123.89z"/>
		<path fill="#B85133" d="M372.902,100.941H235.203c-3.155,0-5.738-2.583-5.738-5.738l0,0c0-3.155,2.583-5.738,5.738-5.738h137.699
			c3.156,0,5.737,2.583,5.737,5.738l0,0C378.639,98.358,376.058,100.941,372.902,100.941z"/>
		<path fill="#6A3311" d="M381.508,112.416H240.94c-3.156,0-5.737-2.583-5.737-5.738l0,0c0-3.155,2.581-5.736,5.737-5.736h140.568
			c3.156,0,5.738,2.581,5.738,5.736l0,0C387.246,109.833,384.663,112.416,381.508,112.416z"/>
		<path fill="#88C057" d="M245.083,77.152v10.511v0.006c0,4.357,3.532,7.889,7.889,7.889c3.666,0,6.747-2.502,7.633-5.891
			c0.075-0.28,0.439-0.28,0.511,0c0.887,3.389,3.967,5.891,7.634,5.891c3.666,0,6.748-2.502,7.633-5.891
			c0.075-0.28,0.439-0.28,0.511,0c0.887,3.389,3.967,5.891,7.634,5.891c3.666,0,6.747-2.502,7.633-5.891
			c0.075-0.28,0.439-0.28,0.511,0c0.887,3.389,3.967,5.891,7.634,5.891c3.666,0,6.748-2.502,7.633-5.891
			c0.075-0.28,0.439-0.28,0.511,0c0.887,3.389,3.967,5.891,7.634,5.891c3.666,0,6.747-2.502,7.633-5.891
			c0.075-0.28,0.439-0.28,0.511,0c0.887,3.389,3.967,5.891,7.634,5.891c3.666,0,6.748-2.502,7.633-5.891
			c0.075-0.28,0.439-0.28,0.511,0c0.887,3.389,3.967,5.891,7.634,5.891c3.666,0,6.747-2.502,7.633-5.891
			c0.075-0.28,0.439-0.28,0.511,0c0.887,3.389,3.967,5.891,7.634,5.891c4.357,0,7.889-3.531,7.889-7.889v-0.006V77.152H245.083z"/>
		<path fill="#659C35" d="M370.033,135.364v-10.511v-0.005c0-4.357-3.531-7.889-7.889-7.889c-3.666,0-6.748,2.5-7.633,5.889
			c-0.075,0.28-0.439,0.28-0.511,0c-0.887-3.389-3.968-5.889-7.634-5.889c-3.666,0-6.747,2.5-7.633,5.889
			c-0.075,0.28-0.439,0.28-0.511,0c-0.887-3.389-3.968-5.889-7.634-5.889s-6.748,2.5-7.633,5.889c-0.075,0.28-0.439,0.28-0.511,0
			c-0.887-3.389-3.968-5.889-7.634-5.889c-3.666,0-6.747,2.5-7.633,5.889c-0.075,0.28-0.439,0.28-0.511,0
			c-0.887-3.389-3.968-5.889-7.634-5.889s-6.748,2.5-7.633,5.889c-0.075,0.28-0.439,0.28-0.511,0
			c-0.887-3.389-3.968-5.889-7.634-5.889c-3.666,0-6.747,2.5-7.633,5.889c-0.075,0.28-0.439,0.28-0.511,0
			c-0.887-3.389-3.968-5.889-7.634-5.889s-6.748,2.5-7.633,5.889c-0.075,0.28-0.439,0.28-0.511,0
			c-0.887-3.389-3.968-5.889-7.634-5.889c-4.357,0-7.889,3.531-7.889,7.889v0.005v10.511H370.033L370.033,135.364z"/>
		<path fill="#D99F4C" d="M308.195,48.465h31.556c23.627,0,34.258,17.201,38.206,26.204c2.049,4.672-0.683,10.31-5.734,11.015
			c-0.356,0.05-0.695,0.076-1.011,0.076h-63.017H245.18c-0.316,0-0.654-0.026-1.009-0.076c-5.052-0.705-7.784-6.342-5.735-11.015
			c3.944-9.002,14.576-26.204,38.206-26.204H308.195z"/>
		<path fill="#EFDFA0" d="M336.879,77.152c-0.545,0-1.099-0.158-1.589-0.482l-8.606-5.738c-1.316-0.88-1.672-2.659-0.794-3.979
			c0.877-1.32,2.659-1.672,3.979-0.795l8.605,5.738c1.317,0.881,1.673,2.659,0.795,3.979
			C338.716,76.705,337.806,77.152,336.879,77.152z"/>
		<path fill="#EFDFA0" d="M296.717,65.678c-0.431,0-0.869-0.098-1.279-0.301c-1.417-0.709-1.991-2.433-1.282-3.85l2.869-5.738
			c0.708-1.417,2.427-1.991,3.85-1.282c1.417,0.708,1.991,2.432,1.282,3.85l-2.869,5.737
			C298.782,65.098,297.77,65.678,296.717,65.678z"/>
		<path fill="#EFDFA0" d="M265.16,74.284c-0.431,0-0.869-0.098-1.279-0.301c-1.417-0.709-1.991-2.433-1.282-3.851l2.869-5.737
			c0.708-1.415,2.43-1.985,3.849-1.282c1.417,0.708,1.991,2.432,1.283,3.85l-2.869,5.737
			C267.226,73.704,266.214,74.284,265.16,74.284z"/>
		<path fill="#D99F4C" d="M370.033,126.758h-11.377h-11.475h-40.162h-63.015c-3.156,0-5.738,2.581-5.738,5.737
			c0,0,5.192,31.556,37.196,31.556h31.556h31.556c32.003,0,37.196-31.556,37.196-31.556
			C375.771,129.339,373.189,126.758,370.033,126.758z"/>
		<path fill="#EFDFA0" d="M272.591,146.838c-0.545,0-1.099-0.157-1.59-0.48l-8.605-5.738c-1.317-0.881-1.673-2.659-0.795-3.979
			c0.878-1.317,2.657-1.676,3.979-0.795l8.606,5.738c1.317,0.88,1.672,2.658,0.794,3.979
			C274.427,146.392,273.517,146.838,272.591,146.838z"/>
		<path fill="#EFDFA0" d="M304.153,152.577c-1.053,0-2.065-0.579-2.571-1.587l-2.868-5.736c-0.709-1.418-0.135-3.142,1.283-3.851
			c1.419-0.709,3.14-0.134,3.849,1.283l2.869,5.736c0.708,1.418,0.135,3.143-1.282,3.851
			C305.022,152.48,304.583,152.577,304.153,152.577z"/>
		<path fill="#EFDFA0" d="M324.228,146.837c-0.431,0-0.87-0.099-1.28-0.302c-1.417-0.709-1.991-2.434-1.282-3.85l2.869-5.738
			c0.708-1.414,2.427-1.985,3.849-1.281c1.417,0.709,1.991,2.432,1.283,3.849l-2.868,5.738
			C326.294,146.256,325.281,146.837,324.228,146.837z"/>
	</g>
	<g>
		<path fill="#FF9811" d="M264.594,14.985c-1.609,0.818-3.378,0.997-5.015,0.629l-3.494,8.401l-8.838-2.177
			c-0.665,1.563-1.86,2.909-3.488,3.736l11.578,22.779l17.779-9.037l0.121,0.238l-6.824-25.868
			C265.887,14.197,265.279,14.637,264.594,14.985z"/>
		<path fill="#FFA733" d="M255.336,48.354l-11.578-22.779c-1.629,0.828-3.421,0.999-5.074,0.614l-3.451,8.423l-8.845-2.129
			c-0.67,1.539-1.856,2.863-3.465,3.681c-0.685,0.348-1.399,0.58-2.121,0.704l16.875,20.759l-0.121-0.237L255.336,48.354z"/>
		<path fill="#FFDA44" d="M216.146,22.831c-3.676,1.868-5.146,6.379-3.278,10.056c1.521,2.991,4.79,4.521,7.935,3.982
			c0.721-0.124,1.436-0.356,2.121-0.704L216.146,22.831z"/>
		<path fill="#FFCD00" d="M222.924,36.165c1.609-0.818,2.795-2.142,3.465-3.681c0.859-1.977,0.864-4.308-0.187-6.375
			c-1.868-3.676-6.38-5.147-10.056-3.278L222.924,36.165z"/>
		<path fill="#FFDA44" d="M257.816,1.651c-3.676,1.869-5.147,6.38-3.279,10.056c1.051,2.067,2.937,3.437,5.041,3.908
			c1.637,0.367,3.406,0.188,5.015-0.629L257.816,1.651z"/>
		<path fill="#FFCD00" d="M264.594,14.985c0.685-0.348,1.293-0.789,1.818-1.298c2.29-2.223,2.98-5.767,1.46-8.758
			c-1.869-3.676-6.38-5.146-10.056-3.278L264.594,14.985z"/>
		<path fill="#FFDA44" d="M236.981,12.241c-3.676,1.869-5.146,6.38-3.278,10.056c1.041,2.048,2.901,3.41,4.981,3.893
			c1.653,0.385,3.445,0.213,5.074-0.614L236.981,12.241z"/>
		<path fill="#FFCD00" d="M243.759,25.575c1.628-0.828,2.823-2.174,3.488-3.736c0.836-1.965,0.832-4.271-0.21-6.319
			c-1.868-3.676-6.379-5.147-10.055-3.279L243.759,25.575z"/>
		
			<rect x="237.934" y="47.745" transform="matrix(-0.8915 0.4531 -0.4531 -0.8915 511.9407 -15.9265)" fill="#FFCD00" width="39.887" height="11.218"/>
	</g>
</g>
<g>
	<g>
		<path fill="#698B9E" d="M86.176,163.195c1.692,1.568,4.599,0.881,5.54-1.229c2.185-4.913,9.45-2.899,9.065-7.006
			c-0.44-4.71,3.016-8.169,7.727-7.728c4.71,0.441,8.169-3.016,7.727-7.727c-0.44-4.711,6.882-0.12,7.727-7.726
			c0,0,2.051-5.316-3.036-5.821l-19.831-0.079V95.26c0-30.159-24.448-54.607-54.607-54.607H0v46.109
			c0,30.366,24.618,54.984,54.984,54.984h30.489L85.29,161.54C85.4,162.24,85.728,162.777,86.176,163.195z"/>
		<path fill="#5D7989" d="M15.359,100.142v-5.464c21.093,0,38.251-17.159,38.251-38.252h5.465
			C59.075,80.53,39.466,100.142,15.359,100.142z"/>
		<path fill="#5D7989" d="M24.251,109.036v-5.465c21.094,0,38.253-17.158,38.253-38.251h5.464
			C67.969,89.423,48.356,109.036,24.251,109.036z"/>
		<path fill="#5D7989" d="M32.749,117.531v-5.465c21.094,0,38.252-17.158,38.252-38.251h5.464
			C76.465,97.919,56.854,117.531,32.749,117.531z"/>
		<path fill="#5D7989" d="M41.639,126.424v-5.465c21.094,0,38.253-17.159,38.253-38.252h5.463
			C85.356,106.812,65.746,126.424,41.639,126.424z"/>
		<path fill="#546A79" d="M99.064,80.669c5.411-1.076,11.293-3.308,17.173-7.568c0,0-11.143-22.471-28.228-13.255
			C93.105,65.817,96.909,72.894,99.064,80.669z"/>
		<path fill="#546A79" d="M44.78,140.766c-8.801-1.653-16.842-5.406-23.626-10.716c-0.891,7.822-0.124,19.302,8.143,30.705
			C29.296,160.755,44.724,153.105,44.78,140.766z"/>
		<circle fill="#38454F" cx="33.159" cy="56.426" r="5.465"/>
	</g>
	<g>
		<path fill="#FF9811" d="M122.094,46.488c-1.319-1.233-2.091-2.834-2.306-4.498l-9.089-0.412l-0.975-9.049
			c-1.696-0.091-3.369-0.754-4.704-2L87.571,49.195l14.568,13.619l-0.181,0.195l21.977-15.255
			C123.277,47.434,122.655,47.013,122.094,46.488z"/>
		<path fill="#FFA733" d="M87.571,49.195l17.448-18.667c-1.334-1.248-2.108-2.874-2.312-4.559l-9.095-0.363l-1.023-9.04
			c-1.675-0.103-3.324-0.765-4.643-1.999c-0.562-0.524-1.024-1.116-1.387-1.751L72.82,35.771l0.181-0.195L87.571,49.195z"/>
		<path fill="#FFDA44" d="M98.16,3.641c-3.013-2.815-7.755-2.655-10.57,0.357c-2.291,2.451-2.612,6.047-1.031,8.819
			c0.363,0.635,0.825,1.227,1.387,1.751L98.16,3.641z"/>
		<path fill="#FFCD00" d="M87.946,14.568c1.319,1.233,2.968,1.896,4.643,1.999c2.152,0.131,4.345-0.661,5.928-2.355
			c2.816-3.012,2.656-7.754-0.356-10.571L87.946,14.568z"/>
		<path fill="#FFDA44" d="M132.308,35.561c-3.013-2.816-7.755-2.656-10.571,0.356c-1.584,1.694-2.227,3.935-1.949,6.073
			c0.215,1.664,0.987,3.265,2.306,4.498L132.308,35.561z"/>
		<path fill="#FFCD00" d="M122.094,46.488c0.561,0.524,1.183,0.946,1.841,1.265c2.871,1.392,6.438,0.829,8.729-1.622
			c2.816-3.012,2.657-7.755-0.356-10.57L122.094,46.488z"/>
		<path fill="#FFDA44" d="M115.233,19.601c-3.011-2.815-7.753-2.656-10.57,0.357c-1.568,1.678-2.213,3.892-1.956,6.012
			c0.204,1.685,0.977,3.311,2.312,4.559L115.233,19.601z"/>
		<path fill="#FFCD00" d="M105.019,30.528c1.335,1.247,3.008,1.909,4.704,2c2.132,0.113,4.299-0.679,5.868-2.357
			c2.815-3.013,2.656-7.754-0.358-10.57L105.019,30.528z"/>
		
			<rect x="63.797" y="47.684" transform="matrix(-0.7305 -0.6829 0.6829 -0.7305 108.5228 149.4095)" fill="#FFCD00" width="39.887" height="11.218"/>
	</g>
</g>
<g>
	<g>
		<path fill="#994530" d="M780.198,128.603c0,0,10.514,22.852,37.655,31.828c6.032,1.994,12.385,2.479,18.711,3.045
			c25.97,2.321,88.198-3.206,102.569-62.652c4.512-18.675,2.508-38.339-4.72-56.139c-10.407-25.63-33.725-58.461-81.983-36.473
			c-27.495,12.53-25.408,33.938-19.522,48.821c7.122,18.013-7.404,36.585-26.611,34.059
			C782.563,87.97,771.027,102.233,780.198,128.603z"/>
		<g>
			<path fill="#D75A4A" d="M792.537,122.954c1.327,2.594,10.097,18.332,30.081,24.94c4.406,1.457,9.451,1.906,14.798,2.377
				l0.931,0.082c2.701,0.242,5.607,0.364,8.641,0.364c60.024,0,75.455-37.037,79.306-52.96c3.744-15.496,2.329-32.038-4.078-47.836
				c-9.634-23.725-23.478-35.76-41.142-35.76c-7.296,0-15.463,2.031-24.263,6.042c-9.879,4.502-22.042,12.945-13.637,34.205
				c4.239,10.73,3.012,22.272-3.378,31.666c-7.164,10.535-19.815,16.182-32.67,14.495c-1.628-0.216-3.188-0.327-4.635-0.327
				c-3.556,0-8.261,0.653-10.476,3.773C789.484,107.581,789.674,114.465,792.537,122.954z"/>
			<path fill="#C64940" d="M846.993,154.019c-3.13,0-6.134-0.126-8.934-0.377l-0.934-0.082c-5.527-0.485-10.754-0.948-15.538-2.533
				c-21.051-6.96-30.335-23.352-31.985-26.568l-0.193-0.452c-3.248-9.63-3.278-17.408-0.085-21.905
				c3.011-4.243,9.541-5.967,18.238-4.809c11.678,1.54,22.977-3.479,29.504-13.076c5.765-8.47,6.874-18.896,3.041-28.596
				c-10.529-26.628,8.936-35.506,15.336-38.425c31.959-14.55,55.5-3.813,69.836,31.481c6.673,16.445,8.135,33.683,4.226,49.851
				C925.47,115.214,909.358,154.019,846.993,154.019z M795.584,121.656c1.323,2.503,9.694,17.021,28.074,23.102
				c4.059,1.341,8.911,1.77,14.052,2.222l0.937,0.083c2.602,0.231,5.412,0.351,8.345,0.351c57.676,0,72.431-35.271,76.096-50.437
				c3.578-14.813,2.218-30.658-3.93-45.816c-9.084-22.358-21.896-33.696-38.084-33.696c-6.823,0-14.527,1.932-22.894,5.745
				c-9.971,4.543-19.182,11.661-11.937,29.989c4.649,11.764,3.296,24.426-3.717,34.736c-7.937,11.668-21.668,17.783-35.827,15.907
				c-5.922-0.778-10.557,0.063-11.994,2.088C793.271,107.952,792.755,113.138,795.584,121.656z"/>
		</g>
		<g>
			<circle fill="#E6E6E6" cx="884.207" cy="42.391" r="13.207"/>
			<path fill="#7A3726" d="M884.207,58.899c-9.104,0-16.509-7.406-16.509-16.508s7.405-16.508,16.509-16.508
				s16.508,7.406,16.508,16.508S893.311,58.899,884.207,58.899z M884.207,32.485c-5.461,0-9.905,4.444-9.905,9.905
				c0,5.46,4.444,9.905,9.905,9.905s9.904-4.444,9.904-9.905C894.112,36.93,889.668,32.485,884.207,32.485z"/>
		</g>
		<path fill="#C64940" d="M861.629,151.031l-6.407-1.581c1.436-5.814-3.511-10.619-11.377-16.043
			c-9.493-6.551-15.904-16.895-17.59-28.377c-0.614-4.181-1.4-7.545-1.412-7.577l6.346-1.81c0.034,0.092,3.6,10.248,13.135,14.243
			c6.913,2.896,15.409,1.975,25.25-2.746c38.227-18.338,56.465-8.736,57.225-8.321l-3.192,5.784
			c-0.133-0.07-16.409-8.187-51.176,8.485c-11.655,5.594-21.996,6.55-30.746,2.85c-2.645-1.119-4.917-2.571-6.86-4.176
			c2.54,6.517,6.968,12.199,12.769,16.2C853.483,132.038,864.453,139.6,861.629,151.031z"/>
		<path fill="#C64940" d="M866.441,91.278c-17.729,0-25.108-12.196-25.202-12.348l5.703-3.334l-2.851,1.667l2.838-1.687
			c0.356,0.59,8.959,14.312,32.151,6.949c5.084-2.62,39.744-19.815,51.566-7.557l-4.751,4.586
			c-6.533-6.775-30.471,1.901-44.017,8.96l-0.508,0.213C875.744,90.544,870.783,91.278,866.441,91.278z"/>
	</g>
	<g>
		<path fill="#FF9811" d="M797.871,50.031c-1.818,1.141-3.893,1.542-5.871,1.283l-3.233,10.32l-10.696-1.628
			c-0.62,1.92-1.89,3.643-3.729,4.797l16.152,25.724l20.077-12.606l0.168,0.269l-10.855-29.892
			C799.319,48.958,798.644,49.545,797.871,50.031z"/>
		<path fill="#FFA733" d="M790.494,90.527l-16.152-25.724c-1.839,1.155-3.942,1.55-5.941,1.272l-3.181,10.342l-10.697-1.571
			c-0.63,1.894-1.891,3.588-3.708,4.729c-0.773,0.485-1.595,0.835-2.436,1.061l22.207,22.764l-0.17-0.269L790.494,90.527z"/>
		<path fill="#FFDA44" d="M741.359,64.519c-4.148,2.606-5.407,8.103-2.8,12.255c2.122,3.378,6.154,4.839,9.82,3.863
			c0.841-0.226,1.662-0.576,2.436-1.061L741.359,64.519z"/>
		<path fill="#FFCD00" d="M750.815,79.576c1.817-1.141,3.078-2.836,3.708-4.729c0.803-2.433,0.56-5.193-0.906-7.527
			c-2.606-4.152-8.104-5.409-12.258-2.801L750.815,79.576z"/>
		<path fill="#FFDA44" d="M788.416,34.973c-4.151,2.606-5.408,8.105-2.803,12.256c1.468,2.335,3.846,3.754,6.387,4.085
			c1.979,0.258,4.053-0.143,5.871-1.283L788.416,34.973z"/>
		<path fill="#FFCD00" d="M797.871,50.031c0.772-0.486,1.447-1.073,2.013-1.732c2.472-2.877,2.907-7.146,0.788-10.524
			c-2.606-4.151-8.105-5.408-12.256-2.801L797.871,50.031z"/>
		<path fill="#FFDA44" d="M764.889,49.745c-4.151,2.607-5.407,8.105-2.803,12.257c1.452,2.312,3.801,3.724,6.314,4.074
			c1.999,0.277,4.103-0.118,5.941-1.272L764.889,49.745z"/>
		<path fill="#FFCD00" d="M774.342,64.803c1.839-1.155,3.108-2.877,3.729-4.797c0.778-2.416,0.526-5.146-0.928-7.459
			c-2.605-4.152-8.104-5.408-12.254-2.802L774.342,64.803z"/>
		
			<rect x="770.332" y="89.506" transform="matrix(-0.8469 0.5317 -0.5317 -0.8469 1517.6594 -244.5928)" fill="#FFCD00" width="47.414" height="13.335"/>
	</g>
</g>
<g>
	<g>
		<g>
			<path fill="#F9E280" d="M641.696,76.559c-0.054-1-0.101-1.999-0.197-3.003c-0.36-3.702-1.101-7.282-2.055-10.79
				c-5.436,27.176-27.503,48.143-50.416,57.885c-46.271,19.678-80.659,17.721-101.986,10.223c-5.79-0.262-11.501-0.973-17.472-2.229
				c-0.268-0.058-0.501-0.144-0.753-0.214c2.565,1.697,5.779,3.577,9.726,5.403c19.5,9.021,56.146,16.531,112.863-7.591
				C612.299,117.358,632.526,99.701,641.696,76.559z"/>
			<path fill="#F9E280" d="M461.815,122.092l-0.448,0.43c0.151,0.158,0.633,0.646,1.439,1.36
				C462.428,123.3,462.11,122.696,461.815,122.092z"/>
		</g>
		<g>
			<path fill="#F9D70B" d="M469.566,128.644c1.506,0.315,2.996,0.598,4.474,0.847C472.562,129.242,471.072,128.962,469.566,128.644z
				"/>
			<path fill="#E8C52E" d="M639.237,61.917l-2.229-17.519l-7.896,1.188l0.805,17.241c-0.279,2.214-0.353,4.661-1.203,6.523
				c-13.263,29.156-50.702,48.549-95.486,56.801c-18.437,3.399-32.246,5.286-45.568,4.755c-0.21-0.01-0.415-0.026-0.625-0.036
				c0.003,0.001,0.006-0.002,0.006-0.002c21.328,7.498,55.717,9.454,101.987-10.221c22.91-9.741,44.974-30.704,50.414-57.874
				C639.365,62.495,639.317,62.199,639.237,61.917z"/>
			<path fill="#F9D70B" d="M477.9,130.062c0.162,0.021,0.324,0.05,0.485,0.072C478.224,130.112,478.062,130.083,477.9,130.062z"/>
			<path fill="#F9D70B" d="M641.679,76.32c0.005,0.079,0.011,0.157,0.016,0.235c-9.168,23.142-29.395,40.799-50.29,49.685
				c-56.718,24.125-93.365,16.615-112.866,7.593c-3.945-1.825-7.16-3.705-9.726-5.403c0.252,0.073,0.485,0.159,0.753,0.215
				c-3.288-0.69-5.355-2.594-6.757-4.761c-0.806-0.714-1.289-1.202-1.44-1.359l0.45-0.431c-1.529-3.16-2.027-6.329-3.034-6.828
				c-1.96-0.975-5.194,2.543-6.693,5.392c12.175,36.297,50.87,47.223,98.896,42.566C604.13,158.069,644.058,119.473,641.679,76.32
				L641.679,76.32z"/>
		</g>
		<path fill="#B58C30" d="M631.939,69.745l4.899,0.981c2.154,0.431,4.06-1.474,3.635-3.631c-0.331-1.687-0.724-3.354-1.187-4.998
			c-0.031-0.121-0.058-0.245-0.073-0.369l-1.81-14.207c-0.22-1.712-1.802-2.909-3.508-2.65l-2.04,0.308
			c-1.559,0.234-2.688,1.609-2.615,3.183l0.664,14.226c0.008,0.165,0,0.325-0.021,0.49c-0.125,1.063-0.221,2.164-0.377,3.229
			C629.266,67.912,630.341,69.424,631.939,69.745z"/>
	</g>
	<g>
		<path fill="#FF9811" d="M680.258,96.546c-0.073-2,0.571-3.863,1.702-5.338l-6.827-7.428l6.305-7.88
			c-1.263-1.397-2.061-3.226-2.137-5.249l-28.311,1.046l0.816,22.096l-0.295,0.011l29.205,5.175
			C680.45,98.216,680.289,97.398,680.258,96.546z"/>
		<path fill="#FFA733" d="M650.99,71.698l28.311-1.046c-0.073-2.024,0.588-3.908,1.744-5.391l-6.868-7.394l6.259-7.909
			c-1.236-1.391-2.016-3.2-2.09-5.201c-0.031-0.851,0.067-1.678,0.278-2.461l-28.744,7.317l0.293-0.012L650.99,71.698z"/>
		<path fill="#FFDA44" d="M694.918,44.144c-0.169-4.568-4.024-8.149-8.592-7.979c-3.719,0.138-6.78,2.714-7.702,6.13
			c-0.211,0.784-0.31,1.61-0.278,2.461L694.918,44.144z"/>
		<path fill="#FFCD00" d="M678.346,44.757c0.074,2,0.854,3.81,2.09,5.201c1.59,1.784,3.933,2.875,6.502,2.78
			c4.568-0.169,8.148-4.024,7.98-8.594L678.346,44.757z"/>
		<path fill="#FFDA44" d="M696.83,95.933c-0.169-4.567-4.023-8.148-8.592-7.979c-2.569,0.096-4.825,1.355-6.278,3.255
			c-1.131,1.475-1.775,3.338-1.702,5.338L696.83,95.933z"/>
		<path fill="#FFCD00" d="M680.258,96.546c0.031,0.852,0.192,1.67,0.459,2.434c1.172,3.34,4.416,5.684,8.133,5.547
			c4.569-0.169,8.149-4.024,7.98-8.594L680.258,96.546z"/>
		<path fill="#FFDA44" d="M695.874,70.041c-0.17-4.569-4.023-8.149-8.592-7.981c-2.546,0.094-4.783,1.333-6.237,3.202
			c-1.156,1.483-1.817,3.367-1.744,5.391L695.874,70.041z"/>
		<path fill="#FFCD00" d="M679.301,70.652c0.076,2.023,0.874,3.852,2.137,5.249c1.588,1.756,3.91,2.826,6.456,2.73
			c4.57-0.169,8.149-4.022,7.98-8.591L679.301,70.652z"/>
		
			<rect x="622.663" y="65.709" transform="matrix(-0.0369 -0.9993 0.9993 -0.0369 596.717 718.92)" fill="#FFCD00" width="44.224" height="12.438"/>
	</g>
</g>
</svg>
