<?xml version="1.0" encoding="utf-8"?>
<!-- Generator: Adobe Illustrator 16.0.0, SVG Export Plug-In . SVG Version: 6.00 Build 0)  -->
<!DOCTYPE svg PUBLIC "-//W3C//DTD SVG 1.1//EN" "http://www.w3.org/Graphics/SVG/1.1/DTD/svg11.dtd">
<svg version="1.1" id="Layer_1" xmlns="http://www.w3.org/2000/svg" xmlns:xlink="http://www.w3.org/1999/xlink" x="0px" y="0px"
	 width="88.012px" height="30.918px" viewBox="0 0 88.012 30.918" enable-background="new 0 0 88.012 30.918" xml:space="preserve">
<g>
	<path fill="#FFFFFF" d="M16.771,15.826c0,0.084,0.001,0.162,0.004,0.236c0.102-0.191,0.188-0.417,0.24-0.67
		c-0.072-0.037-0.142-0.078-0.211-0.12C16.783,15.454,16.771,15.641,16.771,15.826z"/>
	<path fill="#FFFFFF" d="M27.362,15.826c0,0.085,0.002,0.164,0.006,0.238c0.1-0.191,0.188-0.418,0.238-0.672
		c-0.069-0.037-0.141-0.078-0.211-0.12C27.375,15.454,27.362,15.641,27.362,15.826z"/>
	<path fill="#FFFFFF" d="M50.45,13.866l-0.247,1.178C50.328,14.668,50.415,14.266,50.45,13.866z"/>
	<g>
		<path fill="#FFFFFF" d="M85.426,17.311c-0.182,0.775-0.457,1.096-1.048,1.096c-1.188,0-1.802-2.579-2.121-3.923
			c1.438-0.686,2.872-2.056,2.85-3.88c0-1.233-0.363-1.713-1.277-1.713c-0.795,0-1.482,0.435-1.78,1.052
			c0.253,0.273,0.32,0.774,0.32,1.414c0,1.369-0.751,2.213-2.211,2.647L79.7,14.115l1.873-8.739
			c0.182-0.867-0.275-1.255-1.098-1.255c-1.232,0-2.876,1.095-2.876,1.621c0,0.182,0.022,0.409,0.342,0.706
			c0.145-0.17,0.299-0.253,0.422-0.253c0.195,0,0.323,0.198,0.24,0.572l-2.851,13.599c0.271,0.183,0.546,0.229,0.959,0.229
			c0.821,0,1.687-0.389,1.913-1.439l0.82-3.854l0.528-0.137c0.342,1.778,0.932,5.431,3.214,5.431c1.554,0,2.92-1.074,2.92-2.671
			C86.109,17.538,85.86,17.311,85.426,17.311z"/>
		<path fill="#FFFFFF" d="M10.529,11.144c-0.564,0-1.151-0.132-1.805-0.2l1.278-5.979c1.163,0.524,2.419,1.141,3.331,1.141
			c1.642,0,2.735-1.391,2.234-3.445c-0.977,0.434-1.894,0.57-2.791,0.57c-1.511,0-2.966-0.387-4.555-0.387
			c-2.168,0-6.321,0.799-6.321,4.541c0,1.096,0.685,2.122,1.871,2.122c0.295,0,0.615-0.069,0.958-0.229
			C4.413,8.914,4.277,8.344,4.277,7.955c0-2.395,1.644-3.56,3.169-3.719L3.82,20.299c0.249,0.182,0.685,0.297,1.208,0.297
			c0.847,0,1.735-0.388,1.963-1.459l1.438-6.754c0.662,0.136,1.3,0.387,1.986,0.387c1.188,0,1.802-1.163,1.254-1.871
			C11.289,11.083,10.914,11.144,10.529,11.144z"/>
		<path fill="#FFFFFF" d="M52.282,8.89c-1.142,0-2.216,0.708-3.104,1.802l0.111-0.546c0.208-0.868-0.271-1.256-1.094-1.256
			c-0.958,0-1.778,0.479-2.555,1.096c-0.457,0.364-0.298,1.072,0,1.256c0.203-0.184,0.341-0.275,0.456-0.275
			c0.204,0,0.319,0.204,0.228,0.57l-1.248,5.951c-0.581,0.494-1.415,0.939-2.156,0.939c-0.593,0-0.959-0.41-0.687-1.688
			l2.396-11.363c0.182-0.867-0.275-1.255-1.096-1.255c-1.232,0-2.874,1.095-2.874,1.621c0,0.182,0.021,0.409,0.342,0.706
			c0.144-0.17,0.297-0.253,0.423-0.253c0.194,0,0.322,0.198,0.24,0.572l-0.572,2.669C40.548,9.004,39.84,8.8,38.906,8.8
			c-1.532,0-2.923,0.93-3.953,2.336c-0.938,0.596-2.039,1.193-3.287,1.472c-0.32-0.843-1.05-1.345-1.939-1.345
			c-1.301,0-1.802,1.141-1.323,2.395c0.251,0.16,0.641,0.251,1.051,0.273c0.546,2.465-1.163,4.678-2.511,4.678
			c-0.799,0-1.483-0.776-1.483-2.783c0-2.236,1.347-5.294,3.424-5.294c0.548,0,1.027,0.093,1.46,0.252
			c0.063,0.025,0.125,0.037,0.188,0.037c0.281,0,0.55-0.247,0.586-0.676C30.434,9.12,29.52,8.8,28.379,8.8
			c-1.627,0-3.016,0.967-4.032,2.345c-0.935,0.593-2.032,1.186-3.272,1.463c-0.319-0.843-1.052-1.345-1.939-1.345
			c-1.3,0-1.802,1.141-1.323,2.395c0.249,0.16,0.64,0.251,1.048,0.273c0.549,2.465-1.163,4.678-2.508,4.678
			c-0.799,0-1.483-0.776-1.483-2.783c0-2.236,1.347-5.294,3.424-5.294c0.546,0,1.024,0.093,1.46,0.252
			c0.062,0.025,0.125,0.037,0.188,0.037c0.283,0,0.549-0.247,0.587-0.676C19.841,9.12,18.929,8.8,17.789,8.8
			c-3.446,0-5.841,4.31-5.841,7.757c0,2.146,1.005,4.039,3.354,4.039c2.716,0,5.819-3.447,5.956-6.892
			c0.725-0.145,1.466-0.482,2.101-0.838c-0.522,1.19-0.818,2.491-0.818,3.691c0,2.146,1.005,4.039,3.354,4.039
			c2.716,0,5.819-3.447,5.956-6.892c0.736-0.147,1.488-0.491,2.129-0.854c-0.52,1.199-0.824,2.552-0.824,3.912
			c0,1.461,0.479,3.832,2.854,3.832c1.3,0,2.508-0.957,3.467-2.306c-0.021,1.806,1.003,2.306,2.077,2.306
			c0.971,0,2.193-0.654,3.193-1.523l-2.023,9.646c0.273,0.182,0.662,0.297,1.07,0.297c0.823,0,1.62-0.389,1.851-1.438L47.219,20
			c0.453,0.389,1.025,0.596,1.572,0.596c3.9,0,6.391-4.519,6.391-7.941C55.181,10.58,54.289,8.89,52.282,8.89z M39.522,16.83v-0.021
			c-0.614,0.844-1.573,1.438-2.306,1.438c-0.706,0-1.23-0.502-1.23-1.643c0-2.489,0.981-6.095,3.742-6.095
			c0.342,0,0.706,0.07,1.094,0.206L39.522,16.83z M48.652,18.838c-0.363,0-0.729-0.021-1.141-0.25l1.256-5.957
			c0.754-0.935,1.575-1.46,2.259-1.46c0.776,0,1.346,0.71,1.346,2.306C52.371,15.736,50.981,18.838,48.652,18.838z"/>
		<path fill="#FFFFFF" d="M74.813,8.89c-1.051,0-2.031,0.639-2.941,2.488l0.249-1.232c0.182-0.868-0.271-1.256-1.094-1.256
			c-0.958,0-1.778,0.479-2.556,1.096c-0.457,0.364-0.298,1.072,0,1.256c0.204-0.184,0.342-0.275,0.457-0.275
			c0.204,0,0.293,0.204,0.227,0.57l-1.273,5.973c-0.58,0.486-1.402,0.918-2.133,0.918c-0.591,0-0.959-0.41-0.685-1.688l1.599-7.552
			c-0.275-0.182-0.661-0.297-1.074-0.297c-0.568,0-1.163,0.206-1.55,0.662c-0.571-0.502-1.322-0.75-2.353-0.75
			c-3.169,0-5.748,3.968-5.748,7.962c0,1.461,0.479,3.832,2.851,3.832c1.301,0,2.512-0.957,3.471-2.306
			c-0.022,1.806,1.048,2.306,2.122,2.306c0.958,0,2.167-0.641,3.161-1.494l-0.256,1.197c0.271,0.182,0.66,0.297,1.069,0.297
			c0.821,0,1.69-0.388,1.917-1.438l0.275-1.393c1.163-5.271,2.231-6.297,2.987-6.297c0.479,0,0.706,0.253,0.706,0.572
			c0,0.271-0.091,0.568-0.249,0.706c0.203,0.069,0.457,0.091,0.66,0.091c1.187,0,1.824-1.116,1.824-2.146
			C76.479,9.757,75.91,8.89,74.813,8.89z M62.304,16.809c-0.617,0.844-1.576,1.438-2.304,1.438c-0.71,0-1.233-0.502-1.233-1.643
			c0-2.489,0.98-6.095,3.741-6.095c0.342,0,0.688,0.046,1.073,0.182L62.304,16.809z"/>
	</g>
</g>
</svg>
