<?xml version="1.0" encoding="utf-8"?>
<!-- Generator: Adobe Illustrator 16.0.0, SVG Export Plug-In . SVG Version: 6.00 Build 0)  -->
<!DOCTYPE svg PUBLIC "-//W3C//DTD SVG 1.1//EN" "http://www.w3.org/Graphics/SVG/1.1/DTD/svg11.dtd">
<svg version="1.1" id="Layer_1" xmlns="http://www.w3.org/2000/svg" xmlns:xlink="http://www.w3.org/1999/xlink" x="0px" y="0px"
	 width="50.88px" height="49.333px" viewBox="0 0 50.88 49.333" enable-background="new 0 0 50.88 49.333" xml:space="preserve">
<path fill="#FF7C7C" d="M9.847,37.167c0,0-17.167,2.334-6.167,5.5s2.833,6.666,16.667,6.666s37-3.166,28.833-6.083
	s3.833-4.249-3.667-6.083S9.847,37.167,9.847,37.167z"/>
<g>
	<path fill="#C6C6C6" d="M20.639,45.602L9.44,40.801V14.398l11.199,4V45.602z M20.639,45.602"/>
	<path fill="#E6E6E6" d="M35.838,41.602l-15.199,4V18.398l15.199-4V41.602z M35.838,41.602"/>
	<path fill="#E2E2E2" d="M30.241,3.199L15.042,6.398V3.199L30.241,0V3.199z M30.241,3.199"/>
	<path fill="#D1D1D1" d="M20.639,18.398l-11.199-4l5.602-8L20.639,18.398z M20.639,18.398"/>
	<path fill="#EAEAEA" d="M35.838,14.398l-15.199,4l-5.597-12l15.199-3.199L35.838,14.398z M35.838,14.398"/>
	<path fill="#FF7C7C" d="M35.838,29.602l-15.199,12v-12l15.199-12.8V29.602z M35.838,29.602"/>
	<path fill="#FF5555" d="M9.44,36.801l11.199,4.801v-12L9.44,24.801V36.801z M9.44,36.801"/>
	<path fill="#FFFFFF" d="M27.213,13.5c-1.773,0.465-2.367-1.137-2.645-2.203c-0.281-1.063-0.547-2.75,1.227-3.215
		s2.363,1.141,2.641,2.203C28.717,11.348,28.987,13.035,27.213,13.5L27.213,13.5z M27.213,13.5"/>
	<path fill="#EDEDED" d="M27.042,3.875l1.598-0.34V0.336l-1.598,0.336V3.875z M27.042,3.875"/>
	<path fill="#EDEDED" d="M23.838,4.547l1.602-0.336V1.012l-1.602,0.336V4.547z M23.838,4.547"/>
	<path fill="#EDEDED" d="M20.639,5.223l1.602-0.34V1.684L20.639,2.02V5.223z M20.639,5.223"/>
	<path fill="#EDEDED" d="M17.44,5.895l1.602-0.336v-3.2L17.44,2.695V5.895z M17.44,5.895"/>
</g>
</svg>
