<?xml version="1.0" encoding="utf-8"?>
<!-- Generator: Adobe Illustrator 16.0.0, SVG Export Plug-In . SVG Version: 6.00 Build 0)  -->
<!DOCTYPE svg PUBLIC "-//W3C//DTD SVG 1.1//EN" "http://www.w3.org/Graphics/SVG/1.1/DTD/svg11.dtd">
<svg version="1.1" id="Layer_1" xmlns="http://www.w3.org/2000/svg" xmlns:xlink="http://www.w3.org/1999/xlink" x="0px" y="0px"
	 width="431.373px" height="800px" viewBox="184.313 0 431.373 800" enable-background="new 184.313 0 431.373 800"
	 xml:space="preserve">
<path fill="#FCD577" d="M400.028,0C280.911-0.017,184.329,96.539,184.313,215.656c-0.011,83.823,47.782,156.477,117.62,192.172
	l-0.049,353.489l60.956,38.675L417.939,800h0.01l80.021-79.998L467.586,670l30.396-49.994l-47.939-67.563
	c0,0,47.958-67.55,47.958-67.548l0.011-77.039c69.849-35.677,117.661-108.317,117.674-192.141
	C615.699,96.599,519.145,0.017,400.028,0z M399.998,206.953c-31.674-0.003-57.346-25.685-57.343-57.358
	c0.004-31.673,25.685-57.345,57.358-57.342c31.673,0.003,57.345,25.685,57.342,57.356
	C457.352,181.284,431.673,206.956,399.998,206.953z"/>
<g>
	<path fill="#EAC36E" d="M399.973,216.153c-36.695,0-66.55-29.855-66.55-66.55s29.854-66.55,66.55-66.55s66.551,29.854,66.551,66.55
		S436.667,216.153,399.973,216.153z M399.973,101.453c-26.55,0-48.149,21.6-48.149,48.15c0,26.55,21.6,48.15,48.149,48.15
		c26.551,0,48.15-21.6,48.15-48.15C448.123,123.053,426.524,101.453,399.973,101.453z"/>
	<rect x="311.657" y="272.854" fill="#EAC36E" width="176.641" height="27.6"/>
	<rect x="362.847" y="417.057" fill="#EAC36E" width="24.259" height="382.941"/>
</g>
</svg>
