<?xml version="1.0" encoding="utf-8"?>
<!-- Generator: Adobe Illustrator 16.0.0, SVG Export Plug-In . SVG Version: 6.00 Build 0)  -->
<!DOCTYPE svg PUBLIC "-//W3C//DTD SVG 1.1//EN" "http://www.w3.org/Graphics/SVG/1.1/DTD/svg11.dtd">
<svg version="1.1" xmlns="http://www.w3.org/2000/svg" xmlns:xlink="http://www.w3.org/1999/xlink" x="0px" y="0px" width="433px"
	 height="434px" viewBox="0 0 433 434" enable-background="new 0 0 433 434" xml:space="preserve">
<g id="Background">
	<g>
		<defs>
			<rect id="SVGID_1_" x="-1" width="800" height="435"/>
		</defs>
		<clipPath id="SVGID_2_">
			<use xlink:href="#SVGID_1_"  overflow="visible"/>
		</clipPath>
		<g clip-path="url(#SVGID_2_)">
			<g>
				
					<image overflow="visible" opacity="0.07" width="1750" height="1855" xlink:href="E89D337E.png"  transform="matrix(0.24 0 0 0.24 16.646 8.6724)">
				</image>
				<g>
					<g>
						<g>
							<defs>
								<path id="XMLID_14_" d="M137.782,372.76c-5.901,7.656-16.89,9.076-24.544,3.177l0,0c-7.655-5.901-9.077-16.891-3.176-24.544
									L223.005,204.87c5.9-7.655,16.889-9.076,24.544-3.176l0,0c7.655,5.9,9.077,16.888,3.177,24.544L137.782,372.76z"/>
							</defs>
							<clipPath id="XMLID_2_">
								<use xlink:href="#XMLID_14_"  overflow="visible"/>
							</clipPath>
						</g>
					</g>
					<g>
						<path fill="#D19E7B" d="M183.831,255.692c0,0-16.419-2.944-34.364,5.204c-20.256,9.197-30.722,20.437-24.482,37.35
							l28.619,1.203L183.831,255.692z"/>
						<g>
							<defs>
								<path id="XMLID_13_" d="M137.782,372.76c-5.901,7.656-16.89,9.076-24.544,3.177l0,0c-7.655-5.901-9.077-16.891-3.176-24.544
									L223.005,204.87c5.9-7.655,16.889-9.076,24.544-3.176l0,0c7.655,5.9,9.077,16.888,3.177,24.544L137.782,372.76z"/>
							</defs>
							<use xlink:href="#XMLID_13_"  overflow="visible" fill="#1B424C"/>
							<clipPath id="XMLID_3_">
								<use xlink:href="#XMLID_13_"  overflow="visible"/>
							</clipPath>
							<path opacity="0.2" clip-path="url(#XMLID_3_)" fill="#96A8B4" d="M110.312,392.207
								c0.386-5.701,142.357-187.777,142.357-187.777l18.593,41.741L123.564,409.906L110.312,392.207z"/>
						</g>
						<path fill="#FFBC99" d="M151.847,298.371c0,0,18.436,14.445,37.42,7.598l27.83-36.105c0,0,23.855,25.241,14.195,43.88
							c-4.556,8.79-1.458,18.309-2.694,27.041c-1.284,9.061-6.575,14.962-5.717,20.083c2.039,12.166-1.536,32.824-24.474,37.35
							c-10.828,2.138-74.922,6.062-90.623,27.285c0,0-43.406-28.389-42.731-51.4c9.065-5.906,22.138-40.614,38.836-67.545
							c21.067-33.979,44.304-52.99,61.16-51.23C184.996,257.408,151.847,298.371,151.847,298.371z"/>
						<path fill="#FFFFFF" d="M49.717,380.986l15.19-15.884c0,0,22.938,41.347,62.16,56.794l-12.008,15.207L49.73,381.948"/>
						<path fill="#1B424C" d="M57.005,370.882c0,0,17.188,36.761,65.509,59.079l-6.52,10.427l-102.99,1.457l-0.359-25.368
							L57.005,370.882z"/>
						<g>
							<g>
								<path fill="#496870" d="M285.249,208.171c-20.917-3.84-38.021-19.463-52.148-34.95c-1.326-1.455-2.504-3.002-3.529-4.617
									c-0.26,0.274-0.509,0.563-0.745,0.869l-7.937,10.297c-3.709,4.812-4.478,13.426-0.889,18.615
									c9.233,13.327,22.522,23.569,37.76,29.108c5.932,2.15,14.069-0.786,17.778-5.599c3.174-4.118,4.762-6.179,7.936-10.297
									C284.292,210.54,284.871,209.377,285.249,208.171z"/>
							</g>
							<g>
								<circle opacity="0.4" fill="#FFFFFF" cx="315.01" cy="114.177" r="98.5"/>
								<circle fill="none" stroke="#1B424C" stroke-width="26" stroke-miterlimit="10" cx="315.01" cy="114.177" r="98.5"/>
							</g>
						</g>
					</g>
					<g>
						<g>
							<defs>
								<path id="XMLID_12_" d="M137.782,372.76c-5.901,7.656-16.89,9.076-24.544,3.177l0,0c-7.655-5.901-9.077-16.891-3.176-24.544
									L223.005,204.87c5.9-7.655,16.889-9.076,24.544-3.176l0,0c7.655,5.9,9.077,16.888,3.177,24.544L137.782,372.76z"/>
							</defs>
							<clipPath id="XMLID_5_">
								<use xlink:href="#XMLID_12_"  overflow="visible"/>
							</clipPath>
						</g>
					</g>
				</g>
			</g>
			<g>
				<circle opacity="0.5" fill="#FFFFFF" cx="329.541" cy="113" r="62"/>
				<circle fill="#FFFFFF" cx="362.541" cy="118" r="24"/>
			</g>
			<polygon fill="#1B424C" points="14.535,414.277 -1,435 20,435 			"/>
		</g>
	</g>
</g>
<g id="Objects">
</g>
</svg>
